# xmcd
# 
# Track frame offsets:
#     150
#     16037
#     39872
#     64395
#     79715
#     101820
#     124590
#     141282
#     162170
#     184195
#     206820
#     223982
# 
# Disc length: 3283
# 
# Revision: 1
# Processed by: cddbd v1.5.2PL0 Copyright (c) Steve Scherf et al.
# Submitted via: BonkEnc v1.0.6
# 
DISCID=aa0cd10c
DTITLE=THE ROOSTERS - GOOD DREAMS
DYEAR=2003
DGENRE=Rock and Roll
TTITLE0=ゴミ
TTITLE1=Good Dreams
TTITLE2=C.M.C.(Health-Mix)
TTITLE3=Hard Rain
TTITLE4=Drive All Night(Club-Mix)
TTITLE5=Nu[:]rnberg(Health-Mix)
TTITLE6=カレドニア(Re-Mix)
TTITLE7=All Alone
TTITLE8=ニュールンベルグでささやいて
TTITLE9=C.M.C.
TTITLE10=カレドニア
TTITLE11=ドライブ・オール・ナイト
EXTD=YEAR: 2003/09
EXTT0=
EXTT1=
EXTT2=
EXTT3=
EXTT4=
EXTT5=
EXTT6=
EXTT7=
EXTT8=
EXTT9=
EXTT10=
EXTT11=
PLAYORDER=
